#!OML:ASF H:\Terrain\Patient Classification 1\Terrain2\Thursday\justin.ASF
:FULLY-SPECIFIED
:DEGREES
2696
root -3.64089 20.3965 10.2745 -4.27622 2.89225 -9.76092
lowerback 8.84694 2.20309 10.4301
upperback 4.10512 3.80689 3.94082
thorax -0.238926 2.00494 -2.04397
lowerneck -9.49916 -1.78994 -9.55489
upperneck 41.1411 -1.14848 3.28394
head 16.5199 -1.42631 3.0339
rclavicle -3.71727e-014 2.38542e-015
rhumerus -25.6345 -6.29608 -79.5532
rradius 37.4974
rwrist -11.7623
rhand -20.5439 12.7556
rfingers 7.12502
rthumb 5.81471 -17.1447
lclavicle -3.71727e-014 2.38542e-015
lhumerus -40.1507 15.9098 77.0719
lradius 22.6922
lwrist -2.70429
lhand -18.2668 22.0141
lfingers 7.12502
lthumb 8.01288 51.8422
rfemur 1.66324 -6.82976 34.1117
rtibia 27.7304
rfoot -21.6713 6.55318
rtoes 16.493
lfemur -42.0608 6.97579 -7.45496
ltibia 58.0682
lfoot 8.43942 -11.6558
ltoes 1.24476
2697
root -3.63647 20.4099 10.3469 -4.30491 2.88765 -9.70027
lowerback 8.58862 2.25022 10.4427
upperback 4.16714 3.82759 3.89178
thorax -0.0239072 2.0273 -2.08665
lowerneck -9.37721 -1.80565 -9.23959
upperneck 41.0507 -1.14191 2.96108
head 16.4334 -1.41379 2.82966
rclavicle -4.05521e-014 -2.78299e-014
rhumerus -25.7974 -6.23781 -79.7351
rradius 37.7083
rwrist -11.2804
rhand -20.5007 12.006
rfingers 7.12502
rthumb 5.85639 -17.8931
lclavicle -4.05521e-014 -2.78299e-014
lhumerus -40.2792 15.4946 77.3201
lradius 22.9574
lwrist -2.49505
lhand -18.3316 22.3282
lfingers 7.12502
lthumb 7.95028 52.1587
rfemur 1.99666 -7.03645 33.9432
rtibia 27.8026
rfoot -22.1594 6.57665
rtoes 14.7851
lfemur -42.0024 6.91486 -7.55368
ltibia 56.4516
lfoot 9.40387 -10.9069
ltoes 0.146822
2698
root -3.63775 20.4228 10.4103 -4.37818 2.93846 -9.38232
lowerback 8.56057 2.26094 10.103
upperback 4.25779 3.80394 3.82619
thorax 0.0633112 2.01807 -1.96382
lowerneck -9.38787 -1.8087 -9.12074
upperneck 40.9753 -1.11542 2.80282
head 16.3904 -1.40277 2.73939
rclavicle 2.88238e-015 3.06128e-014
rhumerus -25.791 -5.79533 -79.9156
rradius 37.853
rwrist -11.34
rhand -20.6695 11.6366
rfingers 7.12502
rthumb 5.69345 -18.2669
lclavicle 2.88238e-015 3.06128e-014
lhumerus -40.1921 15.359 77.5309
lradius 23.0573
lwrist -2.45429
lhand -18.1293 22.3536
lfingers 7.12502
lthumb 8.14553 52.1767
rfemur 2.24584 -7.17626 33.5317
rtibia 27.9471
rfoot -25.0292 5.07976
rtoes 1.87237
lfemur -41.8447 6.78366 -7.92304
ltibia 54.6925
lfoot 10.5915 -9.97113
ltoes -0.542019
2699
root -3.6398 20.4196 10.4695 -4.51967 2.85611 -8.9826
lowerback 8.82907 2.23037 9.63803
upperback 4.3005 3.75959 3.76052
thorax -0.0751568 1.98556 -1.78909
lowerneck -9.58521 -1.73512 -9.39662
upperneck 41.1417 -1.00403 3.05002
head 16.5257 -1.37251 2.92342
rclavicle 2.31584e-014 1.23246e-014
rhumerus -25.7843 -5.27767 -80.1127
rradius 37.9466
rwrist -11.6417
rhand -20.5346 11.6211
rfingers 7.12502
rthumb 5.8237 -18.2788
lclavicle 2.31584e-014 1.23246e-014
lhumerus -40.211 15.4992 77.5751
lradius 23.0308
lwrist -2.43858
lhand -18.0909 21.9974
lfingers 7.12502
lthumb 8.18262 51.819
rfemur 2.5568 -6.83502 33.1792
rtibia 28.1049
rfoot -25.7234 4.42835
rtoes -0.828134
lfemur -41.6087 6.78958 -8.35439
ltibia 52.9394
lfoot 11.8383 -9.00625
ltoes -0.151295
2700
root -3.63242 20.4119 10.5409 -4.57254 2.75074 -8.67807
lowerback 8.84879 2.23734 9.44772
upperback 4.3067 3.75452 3.6581
thorax -0.0871358 1.9811 -1.79212
lowerneck -9.62185 -1.68417 -9.58514
upperneck 41.2652 -0.944528 3.24033
head 16.6004 -1.35631 3.05697
rclavicle -2.5842e-015 -1.59028e-015
rhumerus -25.8695 -5.13363 -80.3038
rradius 37.9275
rwrist -11.4594
rhand -20.5266 11.8298
rfingers 7.12502
rthumb 5.83137 -18.0699
lclavicle -2.5842e-015 -1.59028e-015
lhumerus -40.2942 15.4604 77.6457
lradius 23.0295
lwrist -2.48948
lhand -18.0664 21.8749
lfingers 7.12502
lthumb 8.20629 51.6955
rfemur 2.86488 -6.63193 32.8119
rtibia 28.1903
rfoot -24.9171 4.83121
rtoes 2.3282
lfemur -41.4727 6.79977 -8.69721
ltibia 51.3437
lfoot 12.8204 -8.16709
ltoes 1.14343
